<svg fill="#000000" width="64px" height="64px" viewBox="0 0 24 24" id="tiktok" data-name="Flat Line" xmlns="http://www.w3.org/2000/svg" class="icon flat-line">
  <g id="SVGRepo_iconCarrier">
    <path id="secondary" d="M21,7H20a4,4,0,0,1-4-4H12V14.5a2.5,2.5,0,1,1-4-2V8.18a6.5,6.5,0,1,0,8,6.32V9.92A8,8,0,0,0,20,11h1Z" style="fill: #2ca9bc; stroke-width: 2;"></path>
    <path id="primary" d="M21,7H20a4,4,0,0,1-4-4H12V14.5a2.5,2.5,0,1,1-4-2V8.18a6.5,6.5,0,1,0,8,6.32V9.92A8,8,0,0,0,20,11h1Z" style="fill: none; stroke: #000000; stroke-linecap: round; stroke-linejoin: round; stroke-width: 2;"></path>
  </g>
</svg>